<svg width="13" height="13" viewBox="0 0 13 13" fill="none" xmlns="http://www.w3.org/2000/svg">
<path fill-rule="evenodd" clip-rule="evenodd" d="M5.10869 10.2276C2.28168 10.2276 -0.0100098 7.93595 -0.0100098 5.10894C-0.0100098 2.28193 2.28168 -0.00976562 5.10869 -0.00976562C7.9357 -0.00976562 10.2274 2.28193 10.2274 5.10894C10.2274 6.31409 9.81091 7.42244 9.11393 8.29677C9.14324 8.31222 9.17153 8.33039 9.19845 8.35084C9.21958 8.36675 9.2398 8.38447 9.25912 8.40401L12.8128 11.9577C13.0491 12.194 13.0491 12.577 12.8128 12.8133C12.5766 13.0492 12.1935 13.0492 11.9573 12.8133L8.40365 9.2597C8.35969 9.21562 8.32379 9.16654 8.29618 9.11429C7.42163 9.81138 6.31384 10.2276 5.10869 10.2276ZM9.29672 5.10894C9.29672 7.42199 7.42163 9.29697 5.10869 9.29697C2.79576 9.29697 0.920663 7.42199 0.920663 5.10894C0.920663 2.79589 2.79576 0.920908 5.10869 0.920908C7.42163 0.920908 9.29672 2.79589 9.29672 5.10894Z" fill="#303030"/>
</svg>
